# Blender3D v249 OBJ File: box_with_jump.blend
# www.blender3d.org
mtllib cubeJump_Scene.mtl
v 0.283657 -0.018865 0.118112
v -0.369115 -0.018865 0.118112
v -0.042729 0.307521 0.118112
v 0.283657 -0.018866 0.579691
v -0.369115 -0.018865 0.579691
v -0.042729 0.307521 0.579691
vn 0.707107 0.707107 0.000000
vn -0.707107 0.707107 -0.000000
vn -0.000000 -0.000000 -1.000000
usemtl (null)
s off
f 4//1 1//1 3//1
f 4//1 3//1 6//1
f 2//2 5//2 6//2
f 2//2 6//2 3//2
f 1//3 2//3 3//3
v 0.500000 0.009134 -0.500000
v 0.500000 0.009134 0.500000
v -0.500000 0.009134 0.500000
v -0.500000 0.009134 -0.500000
v 0.500000 1.009134 -0.500000
v 0.499999 1.009134 0.500000
v -0.500000 1.009134 0.500000
v -0.500000 1.009134 -0.500000
vn -0.000000 -0.000000 1.000000
vn 1.000000 0.000000 0.000000
vn -1.000000 0.000000 -0.000000
vn -1.000000 -0.000000 -0.000001
vn 0.000000 -1.000000 0.000000
vn 0.000000 1.000000 -0.000000
usemtl Material
s off
f 10//4 7//4 14//4
f 7//4 11//4 14//4
f 9//5 10//5 14//5
f 9//5 14//5 13//5
f 8//3 9//3 12//3
f 9//3 13//3 12//3
f 7//6 8//6 11//6
f 8//7 12//7 11//7
f 11//8 12//8 13//8
f 11//8 13//8 14//8
f 7//9 10//9 9//9
f 7//9 9//9 8//9
