# Blender3D v249 OBJ File: 
# www.blender3d.org
v 2.861994 -0.936486 -3.526130
v 3.483807 -0.936486 -2.768446
v 3.945855 -0.936486 -1.904011
v 4.230381 -0.936486 -0.966044
v 4.326453 -0.936486 0.009408
v 4.230378 -0.936486 0.984858
v 3.945848 -0.936486 1.922821
v 3.483799 -0.936486 2.787253
v 2.861985 -0.936486 3.544933
v 2.104303 -0.936486 4.166746
v 1.239871 -0.936486 4.628795
v 0.301907 -0.936486 4.913323
v -0.673542 -0.936486 5.009397
v -1.648992 -0.936486 4.913325
v -2.586956 -0.936486 4.628798
v -3.451389 -0.936486 4.166751
v -4.209072 -0.936486 3.544940
v -4.830887 -0.936486 2.787260
v -5.292938 -0.936486 1.922830
v -5.577469 -0.936486 0.984867
v -5.673547 -0.936486 0.009418
v -5.577477 -0.936486 -0.966032
v -5.292954 -0.936486 -1.903998
v -4.830910 -0.936486 -2.768432
v -4.209101 -0.936486 -3.526117
v -3.451423 -0.936486 -4.147934
v -2.586994 -0.936486 -4.609988
v -1.649032 -0.936486 -4.894523
v -0.673583 -0.936486 -4.990603
v 0.301867 -0.936486 -4.894537
v 1.239833 -0.936486 -4.610016
v 2.104269 -0.936486 -4.147974
v -0.673547 -0.936486 0.009397
v -0.658532 0.607402 -0.009850
v -0.658527 0.608935 -0.007743
v -0.658524 0.610073 -0.005340
v -0.658522 0.610775 -0.002733
v -0.658522 0.611011 -0.000021
v -0.658522 0.610775 0.002690
v -0.658524 0.610073 0.005298
v -0.658527 0.608935 0.007701
v -0.658532 0.607402 0.009807
v -0.658537 0.605534 0.011536
v -0.658543 0.603404 0.012820
v -0.658549 0.601092 0.013611
v -0.658556 0.598688 0.013878
v -0.658562 0.596284 0.013611
v -0.658569 0.593972 0.012820
v -0.658574 0.591841 0.011536
v -0.658580 0.589974 0.009807
v -0.658584 0.588441 0.007701
v -0.658587 0.587302 0.005298
v -0.658589 0.586601 0.002690
v -0.658589 0.586364 -0.000021
v -0.658589 0.586601 -0.002733
v -0.658587 0.587302 -0.005340
v -0.658584 0.588441 -0.007743
v -0.658580 0.589974 -0.009850
v -0.658574 0.591841 -0.011578
v -0.658569 0.593972 -0.012863
v -0.658562 0.596284 -0.013654
v -0.658556 0.598688 -0.013921
v -0.658549 0.601092 -0.013654
v -0.658543 0.603404 -0.012863
v -0.658537 0.605534 -0.011578
v 0.564540 0.604039 -0.009850
v 0.564544 0.605571 -0.007743
v 0.564547 0.606710 -0.005340
v 0.564549 0.607411 -0.002733
v 0.564550 0.607648 -0.000021
v 0.564549 0.607411 0.002690
v 0.564547 0.606710 0.005298
v 0.564544 0.605571 0.007701
v 0.564540 0.604039 0.009807
v 0.564535 0.602171 0.011536
v 0.564529 0.600040 0.012820
v 0.564523 0.597729 0.013611
v 0.564516 0.595324 0.013878
v 0.564509 0.592920 0.013611
v 0.564503 0.590608 0.012820
v 0.564497 0.588478 0.011536
v 0.564492 0.586610 0.009807
v 0.564488 0.585078 0.007701
v 0.564485 0.583939 0.005298
v 0.564483 0.583238 0.002690
v 0.564482 0.583001 -0.000021
v 0.564483 0.583238 -0.002733
v 0.564485 0.583939 -0.005340
v 0.564488 0.585078 -0.007743
v 0.564492 0.586610 -0.009850
v 0.564497 0.588478 -0.011578
v 0.564503 0.590608 -0.012863
v 0.564509 0.592920 -0.013654
v 0.564516 0.595324 -0.013921
v 0.564523 0.597729 -0.013654
v 0.564529 0.600040 -0.012863
v 0.564535 0.602171 -0.011578
v -0.633805 -1.000000 -0.013460
v -0.631318 -1.000000 -0.010430
v -0.629470 -1.000000 -0.006972
v -0.628332 -1.000000 -0.003220
v -0.627948 -1.000000 0.000682
v -0.628332 -1.000000 0.004583
v -0.629470 -1.000000 0.008335
v -0.631318 -1.000000 0.011793
v -0.633805 -1.000000 0.014824
v -0.636836 -1.000000 0.017311
v -0.640294 -1.000000 0.019159
v -0.644046 -1.000000 0.020297
v -0.647948 -1.000000 0.020682
v -0.651849 -1.000000 0.020297
v -0.655601 -1.000000 0.019159
v -0.659059 -1.000000 0.017311
v -0.662090 -1.000000 0.014824
v -0.664577 -1.000000 0.011793
v -0.666425 -1.000000 0.008335
v -0.667563 -1.000000 0.004583
v -0.667948 -1.000000 0.000682
v -0.667563 -1.000000 -0.003220
v -0.666425 -1.000000 -0.006972
v -0.664577 -1.000000 -0.010430
v -0.662090 -1.000000 -0.013460
v -0.659059 -1.000000 -0.015948
v -0.655601 -1.000000 -0.017796
v -0.651849 -1.000000 -0.018934
v -0.647947 -1.000000 -0.019318
v -0.644046 -1.000000 -0.018934
v -0.640294 -1.000000 -0.017796
v -0.636836 -1.000000 -0.015948
v -0.633805 1.000000 -0.013461
v -0.631318 1.000000 -0.010430
v -0.629470 1.000000 -0.006972
v -0.628332 1.000000 -0.003220
v -0.627948 1.000000 0.000682
v -0.628332 1.000000 0.004583
v -0.629470 1.000000 0.008335
v -0.631318 1.000000 0.011793
v -0.633805 1.000000 0.014824
v -0.636836 1.000000 0.017311
v -0.640294 1.000000 0.019159
v -0.644046 1.000000 0.020297
v -0.647948 1.000000 0.020682
v -0.651849 1.000000 0.020297
v -0.655601 1.000000 0.019159
v -0.659059 1.000000 0.017311
v -0.662090 1.000000 0.014824
v -0.664577 1.000000 0.011793
v -0.666425 1.000000 0.008335
v -0.667563 1.000000 0.004583
v -0.667948 1.000000 0.000682
v -0.667563 1.000000 -0.003220
v -0.666425 1.000000 -0.006972
v -0.664577 1.000000 -0.010430
v -0.662090 1.000000 -0.013460
v -0.659059 1.000000 -0.015948
v -0.655601 1.000000 -0.017796
v -0.651850 1.000000 -0.018934
v -0.647948 1.000000 -0.019318
v -0.644046 1.000000 -0.018934
v -0.640294 1.000000 -0.017796
v -0.636836 1.000000 -0.015948
vn -0.000000 1.000000 -0.000000
vn 0.001867 0.679057 -0.734083
vn 0.001420 0.516385 -0.856356
vn 0.001420 0.516554 -0.856253
vn 0.000890 0.323831 -0.946114
vn 0.000890 0.323704 -0.946158
vn 0.000303 0.110337 -0.993894
vn 0.000304 0.110386 -0.993889
vn -0.000304 -0.110386 -0.993889
vn -0.000304 -0.110383 -0.993889
vn -0.000890 -0.323704 -0.946158
vn -0.000890 -0.323711 -0.946155
vn -0.001420 -0.516565 -0.856247
vn -0.001420 -0.516375 -0.856362
vn -0.001868 -0.679057 -0.734083
vn -0.001868 -0.679255 -0.733900
vn -0.002224 -0.808795 -0.588086
vn -0.002224 -0.808621 -0.588325
vn -0.002485 -0.903629 -0.428309
vn -0.002655 -0.965693 -0.259672
vn -0.002739 -0.996200 -0.087054
vn -0.002739 -0.996198 -0.087075
vn -0.002739 -0.996197 0.087086
vn -0.002739 -0.996195 0.087107
vn -0.002655 -0.965718 0.259580
vn -0.002485 -0.903629 0.428309
vn -0.002224 -0.808662 0.588269
vn -0.002223 -0.808488 0.588509
vn -0.001868 -0.679269 0.733887
vn -0.001869 -0.679467 0.733704
vn -0.001420 -0.516270 0.856424
vn -0.001419 -0.516080 0.856539
vn -0.000890 -0.323704 0.946158
vn -0.000890 -0.323711 0.946156
vn -0.000304 -0.110387 0.993889
vn -0.000304 -0.110384 0.993889
vn 0.000303 0.110338 0.993894
vn 0.000304 0.110387 0.993889
vn 0.000891 0.323831 0.946115
vn 0.000890 0.323704 0.946158
vn 0.001419 0.516090 0.856533
vn 0.001420 0.516260 0.856431
vn 0.001868 0.679269 0.733887
vn 0.002224 0.808673 0.588254
vn 0.002223 0.808487 0.588510
vn 0.002485 0.903620 0.428328
vn 0.002486 0.903776 0.427998
vn 0.002656 0.965718 0.259580
vn 0.002655 0.965624 0.259929
vn 0.002739 0.996197 0.087086
vn 0.002740 0.996228 0.086737
vn 0.002740 0.996200 -0.087054
vn 0.002739 0.996230 -0.086705
vn 0.002655 0.965693 -0.259672
vn 0.002656 0.965599 -0.260022
vn 0.002485 0.903620 -0.428328
vn 0.002485 0.903776 -0.427998
vn 0.002224 0.808806 -0.588071
vn 0.002224 0.808621 -0.588326
vn 0.634471 -0.000000 -0.772947
vn 0.634318 -0.000000 -0.773072
vn 0.471327 -0.000000 -0.881958
vn 0.290249 -0.000000 -0.956951
vn 0.097937 0.000000 -0.995193
vn 0.097963 -0.000000 -0.995190
vn -0.097939 -0.000000 -0.995192
vn -0.290316 -0.000000 -0.956931
vn -0.290244 -0.000000 -0.956953
vn -0.471333 -0.000000 -0.881955
vn -0.634471 -0.000000 -0.772947
vn -0.772967 -0.000000 -0.634446
vn -0.881959 -0.000000 -0.471326
vn -0.956949 -0.000000 -0.290255
vn -0.995168 -0.000000 -0.098187
vn -0.995165 0.000000 0.098212
vn -0.956949 0.000000 0.290255
vn -0.881959 0.000000 0.471326
vn -0.773070 0.000000 0.634321
vn -0.634319 0.000000 0.773072
vn -0.634318 0.000000 0.773072
vn -0.471333 0.000000 0.881955
vn -0.290244 0.000000 0.956953
vn -0.098217 0.000000 0.995165
vn 0.098190 0.000000 0.995168
vn 0.290249 0.000000 0.956951
vn 0.471327 0.000000 0.881958
vn 0.634319 0.000000 0.773072
vn 0.634318 0.000000 0.773072
vn 0.773070 0.000000 0.634321
vn 0.881959 0.000000 0.471326
vn 0.956953 0.000000 0.290242
vn 0.995189 0.000000 0.097971
vn 0.995192 -0.000000 -0.097946
vn 0.956953 -0.000000 -0.290242
vn 0.881959 -0.000000 -0.471326
vn 0.773070 -0.000000 -0.634321
vn 0.772967 -0.000000 -0.634446
usemtl (null)
s off
f 2//1 1//1 33//1
f 33//1 3//1 2//1
f 33//1 4//1 3//1
f 33//1 5//1 4//1
f 33//1 6//1 5//1
f 33//1 7//1 6//1
f 33//1 8//1 7//1
f 33//1 9//1 8//1
f 33//1 10//1 9//1
f 33//1 11//1 10//1
f 33//1 12//1 11//1
f 33//1 13//1 12//1
f 33//1 14//1 13//1
f 33//1 15//1 14//1
f 33//1 16//1 15//1
f 33//1 17//1 16//1
f 33//1 18//1 17//1
f 33//1 19//1 18//1
f 33//1 20//1 19//1
f 33//1 21//1 20//1
f 33//1 22//1 21//1
f 33//1 23//1 22//1
f 33//1 24//1 23//1
f 33//1 25//1 24//1
f 33//1 26//1 25//1
f 33//1 27//1 26//1
f 33//1 28//1 27//1
f 33//1 29//1 28//1
f 33//1 30//1 29//1
f 33//1 31//1 30//1
f 33//1 32//1 31//1
f 33//1 1//1 32//1
f 66//2 65//2 34//2
f 66//2 97//2 65//2
f 64//3 97//3 96//3
f 64//4 65//4 97//4
f 63//5 96//5 95//5
f 63//6 64//6 96//6
f 62//7 95//7 94//7
f 62//8 63//8 95//8
f 61//9 94//9 93//9
f 61//10 62//10 94//10
f 60//11 93//11 92//11
f 60//12 61//12 93//12
f 59//13 92//13 91//13
f 59//14 60//14 92//14
f 58//15 91//15 90//15
f 58//16 59//16 91//16
f 57//17 90//17 89//17
f 57//18 58//18 90//18
f 56//19 89//19 88//19
f 56//19 57//19 89//19
f 55//20 88//20 87//20
f 55//20 56//20 88//20
f 54//21 87//21 86//21
f 54//22 55//22 87//22
f 53//23 86//23 85//23
f 53//24 54//24 86//24
f 52//25 85//25 84//25
f 52//25 53//25 85//25
f 51//26 84//26 83//26
f 51//26 52//26 84//26
f 50//27 83//27 82//27
f 50//28 51//28 83//28
f 49//29 82//29 81//29
f 49//30 50//30 82//30
f 48//31 81//31 80//31
f 48//32 49//32 81//32
f 47//33 80//33 79//33
f 47//34 48//34 80//34
f 46//35 79//35 78//35
f 46//36 47//36 79//36
f 45//37 78//37 77//37
f 45//38 46//38 78//38
f 44//39 77//39 76//39
f 44//40 45//40 77//40
f 43//41 76//41 75//41
f 43//42 44//42 76//42
f 42//43 75//43 74//43
f 42//43 43//43 75//43
f 41//44 74//44 73//44
f 41//45 42//45 74//45
f 40//46 73//46 72//46
f 40//47 41//47 73//47
f 39//48 72//48 71//48
f 39//49 40//49 72//49
f 38//50 71//50 70//50
f 38//51 39//51 71//51
f 37//52 70//52 69//52
f 37//53 38//53 70//53
f 36//54 69//54 68//54
f 36//55 37//55 69//55
f 35//56 68//56 67//56
f 35//57 36//57 68//57
f 34//58 67//58 66//58
f 34//59 35//59 67//59
f 130//60 98//60 129//60
f 130//61 129//61 161//61
f 128//62 160//62 161//62
f 128//62 161//62 129//62
f 127//63 159//63 160//63
f 127//63 160//63 128//63
f 126//64 158//64 159//64
f 126//65 159//65 127//65
f 125//66 157//66 158//66
f 125//66 158//66 126//66
f 124//67 156//67 157//67
f 124//68 157//68 125//68
f 123//69 155//69 156//69
f 123//69 156//69 124//69
f 122//70 154//70 155//70
f 122//70 155//70 123//70
f 121//71 153//71 154//71
f 121//71 154//71 122//71
f 120//72 152//72 153//72
f 120//72 153//72 121//72
f 119//73 151//73 152//73
f 119//73 152//73 120//73
f 118//74 150//74 151//74
f 118//74 151//74 119//74
f 117//75 149//75 150//75
f 117//75 150//75 118//75
f 116//76 148//76 149//76
f 116//76 149//76 117//76
f 115//77 147//77 148//77
f 115//77 148//77 116//77
f 114//78 146//78 147//78
f 114//78 147//78 115//78
f 113//79 145//79 146//79
f 113//80 146//80 114//80
f 112//81 144//81 145//81
f 112//81 145//81 113//81
f 111//82 143//82 144//82
f 111//82 144//82 112//82
f 110//83 142//83 143//83
f 110//83 143//83 111//83
f 109//84 141//84 142//84
f 109//84 142//84 110//84
f 108//85 140//85 141//85
f 108//85 141//85 109//85
f 107//86 139//86 140//86
f 107//86 140//86 108//86
f 106//87 138//87 139//87
f 106//88 139//88 107//88
f 105//89 137//89 138//89
f 105//89 138//89 106//89
f 104//90 136//90 137//90
f 104//90 137//90 105//90
f 103//91 135//91 136//91
f 103//91 136//91 104//91
f 102//92 134//92 135//92
f 102//92 135//92 103//92
f 101//93 133//93 134//93
f 101//93 134//93 102//93
f 100//94 132//94 133//94
f 100//94 133//94 101//94
f 99//95 131//95 132//95
f 99//95 132//95 100//95
f 98//96 130//96 131//96
f 98//97 131//97 99//97
